<svg xmlns="http://www.w3.org/2000/svg" width="162" height="32" fill="none">
    <g clip-path="url(#a)">
        <g clip-path="url(#b)">
            <path fill="#0f5757" fill-rule="evenodd" d="M16 32a16 16 0 1 0 0-32 16 16 0 0 0 0 32m0-3a13 13 0 1 0 0-26 13 13 0 0 0 0 26" clip-rule="evenodd"/>
            <path fill="#066" d="M16 10.26a7 7 0 1 1 0 11.49A7 7 0 0 0 19 16a7 7 0 0 0-3-5.74"/>
            <path fill="#00f872" d="M16 21.75A7 7 0 0 1 13 16a7 7 0 0 1 3-5.74 7 7 0 1 0 0 11.49"/>
        </g>
        <path fill="#0f5757" d="M47.9 23.36q-1.89 0-3.17-.9t-1.93-2.45-.65-3.49q0-1.96.65-3.5t1.9-2.44 3.1-.9 3.18.9q1.36.89 2.1 2.44.74 1.53.74 3.5 0 1.94-.73 3.5t-2.06 2.44-3.12.9m-6.25 5.4V10.04h2.55v9.1h.36v9.62zm5.8-8q1.13 0 1.86-.56t1.08-1.52.36-2.16q0-1.18-.36-2.14t-1.11-1.53-1.92-.58q-1.1 0-1.8.54-.7.53-1.03 1.49-.33.95-.33 2.22 0 1.26.33 2.22t1.04 1.5q.72.53 1.88.53m14.9 2.59q-1.97 0-3.46-.85a6 6 0 0 1-2.32-2.37q-.83-1.5-.83-3.48 0-2.12.81-3.68.82-1.57 2.27-2.44t3.36-.86q2.02 0 3.42.95 1.42.93 2.1 2.65t.52 4.04h-2.87v-1.05q-.01-2.11-.74-3.09t-2.3-.97q-1.78 0-2.65 1.1t-.86 3.21q0 1.97.86 3.05t2.52 1.08q1.07 0 1.84-.47.78-.48 1.2-1.38l2.85.86q-.74 1.76-2.3 2.73a6.3 6.3 0 0 1-3.42.97m-4.46-6.04v-2.18h8.91v2.18zM79.52 23v-6.24q0-.61-.08-1.36a5 5 0 0 0-.4-1.42 2.7 2.7 0 0 0-.91-1.14q-.6-.45-1.63-.45-.56 0-1.1.18t-.98.63q-.43.43-.7 1.2-.26.75-.26 1.94l-1.72-.73q0-1.66.64-3a5 5 0 0 1 1.9-2.14q1.24-.8 3.07-.8 1.44 0 2.37.48t1.5 1.22.8 1.59.34 1.6q.09.74.09 1.2V23zm-8.99 0V10.04h2.58v4.02h.35V23zm24.01 0v-6.24q0-.61-.08-1.36a5 5 0 0 0-.4-1.42 2.7 2.7 0 0 0-.9-1.14q-.6-.45-1.64-.45-.55 0-1.1.18t-.98.63q-.43.43-.7 1.2-.26.75-.26 1.94l-1.71-.73q0-1.66.63-3a5 5 0 0 1 1.9-2.14q1.25-.8 3.07-.8 1.44 0 2.38.48t1.49 1.22.81 1.59.34 1.6.08 1.2V23zm-8.99 0V10.04h2.58v4.02h.35V23zm16.29 5.76 2.5-6.85.04 2.01-5.65-13.88h3.01l4.01 10.27h-.77l3.9-10.27h2.9l-7.23 18.72zM113.8 23V5.36h2.9V23zm10.11.36q-1.4 0-2.37-.53-.98-.54-1.48-1.43a4 4 0 0 1-.5-1.95q0-.94.32-1.68.31-.76.96-1.3.65-.55 1.68-.9.78-.25 1.82-.45 1.06-.2 2.28-.38l2.58-.38-1.03.59q.01-1.35-.6-1.98t-2.06-.64q-.88 0-1.7.41t-1.13 1.4l-2.64-.82q.48-1.65 1.82-2.64 1.36-1 3.65-1 1.73 0 3.03.56a3.8 3.8 0 0 1 1.96 1.85q.35.69.42 1.4t.07 1.55V23h-2.53v-2.8l.42.45q-.88 1.4-2.05 2.06-1.17.65-2.92.65m.58-2.3q.98 0 1.68-.35t1.1-.85q.42-.5.57-.95.22-.55.25-1.26.03-.72.03-1.17l.9.27q-1.32.2-2.25.36t-1.6.3q-.68.13-1.2.3-.5.18-.85.42a2 2 0 0 0-.54.55 1.4 1.4 0 0 0-.18.73q0 .48.24.85.24.36.7.58t1.15.22m18.6 1.94v-6.24q0-.61-.1-1.36a5 5 0 0 0-.39-1.42 2.7 2.7 0 0 0-.91-1.14q-.6-.45-1.63-.45-.55 0-1.1.18t-.98.63q-.43.43-.7 1.2-.26.75-.26 1.94l-1.71-.73q0-1.66.63-3a5 5 0 0 1 1.9-2.14q1.25-.8 3.07-.8 1.44 0 2.38.48t1.48 1.22.82 1.59.34 1.6q.08.74.08 1.2V23zm-9 0V10.04h2.58v4.02h.35V23zm20.73.36q-1.97 0-3.45-.85a6 6 0 0 1-2.33-2.37q-.83-1.5-.83-3.48 0-2.12.82-3.68.81-1.57 2.26-2.44t3.36-.86q2.02 0 3.42.95 1.42.93 2.1 2.65t.52 4.04h-2.87v-1.05q-.01-2.11-.74-3.09t-2.3-.97q-1.78 0-2.65 1.1t-.86 3.21q0 1.97.86 3.05t2.52 1.08q1.07 0 1.84-.47.78-.48 1.2-1.38l2.86.86q-.75 1.76-2.3 2.73a6.3 6.3 0 0 1-3.43.97m-4.46-6.04v-2.18h8.91v2.18z"/>
    </g>
    <defs>
        <clipPath id="a">
            <path fill="#fff" d="M0 0h162v32H0z"/>
        </clipPath>
        <clipPath id="b">
            <path fill="#fff" d="M0 0h32v32H0z"/>
        </clipPath>
    </defs>
</svg>
